<svg xmlns:xlink="http://www.w3.org/1999/xlink" xmlns="http://www.w3.org/2000/svg" aria-label="Ellipsis" role="img" focusable="false" class="ud-icon ud-icon-medium ud-icon-color-neutral pagination-module--ellipsis--2bBm5" width="24"  height="24" ><defs><symbol id="icon-more" viewBox="0 0 24 24"><path d="M12 8c1.1 0 2-.9 2-2s-.9-2-2-2-2 .9-2 2 .9 2 2 2zm0 2c-1.1 0-2 .9-2 2s.9 2 2 2 2-.9 2-2-.9-2-2-2zm0 6c-1.1 0-2 .9-2 2s.9 2 2 2 2-.9 2-2-.9-2-2-2z"></path></symbol></defs><use xlink:href="#icon-more"></use></svg>